<mxfile host="app.diagrams.net" agent="Mozilla/5.0 (Windows NT 10.0; Win64; x64) AppleWebKit/537.36 (KHTML, like Gecko) Chrome/127.0.0.0 Safari/537.36" version="24.7.6">
  <diagram name="Page-1" id="OexXXelBNh1XtdhTks6x">
    <mxGraphModel dx="880" dy="508" grid="1" gridSize="10" guides="1" tooltips="1" connect="1" arrows="1" fold="1" page="1" pageScale="1" pageWidth="850" pageHeight="1100" math="0" shadow="0">
      <root>
        <mxCell id="0" />
        <mxCell id="1" parent="0" />
        <mxCell id="dg2vwGeBgCSmrkinromB-10" style="edgeStyle=orthogonalEdgeStyle;rounded=0;orthogonalLoop=1;jettySize=auto;html=1;exitX=0;exitY=0.75;exitDx=0;exitDy=0;entryX=1;entryY=0.75;entryDx=0;entryDy=0;labelBackgroundColor=none;strokeColor=#0B4D6A;fontColor=default;" edge="1" parent="1" source="dg2vwGeBgCSmrkinromB-4" target="dg2vwGeBgCSmrkinromB-25">
          <mxGeometry relative="1" as="geometry">
            <mxPoint x="240" y="280" as="targetPoint" />
          </mxGeometry>
        </mxCell>
        <mxCell id="dg2vwGeBgCSmrkinromB-11" value="2. OrderID" style="edgeLabel;html=1;align=center;verticalAlign=middle;resizable=0;points=[];labelBackgroundColor=default;fontColor=#000033;fontStyle=0;fontSize=12;" vertex="1" connectable="0" parent="dg2vwGeBgCSmrkinromB-10">
          <mxGeometry x="-0.1556" relative="1" as="geometry">
            <mxPoint x="-24" as="offset" />
          </mxGeometry>
        </mxCell>
        <mxCell id="dg2vwGeBgCSmrkinromB-14" style="edgeStyle=orthogonalEdgeStyle;rounded=0;orthogonalLoop=1;jettySize=auto;html=1;exitX=0.75;exitY=1;exitDx=0;exitDy=0;entryX=0.75;entryY=0;entryDx=0;entryDy=0;labelBackgroundColor=none;strokeColor=#0B4D6A;fontColor=default;" edge="1" parent="1" source="dg2vwGeBgCSmrkinromB-4" target="dg2vwGeBgCSmrkinromB-12">
          <mxGeometry relative="1" as="geometry" />
        </mxCell>
        <mxCell id="dg2vwGeBgCSmrkinromB-16" value="5. Amount" style="edgeLabel;html=1;align=center;verticalAlign=middle;resizable=0;points=[];labelBackgroundColor=default;fontColor=#000033;fontStyle=0;fontSize=12;" vertex="1" connectable="0" parent="dg2vwGeBgCSmrkinromB-14">
          <mxGeometry x="0.0333" relative="1" as="geometry">
            <mxPoint as="offset" />
          </mxGeometry>
        </mxCell>
        <mxCell id="dg2vwGeBgCSmrkinromB-36" style="edgeStyle=orthogonalEdgeStyle;rounded=0;orthogonalLoop=1;jettySize=auto;html=1;exitX=0.5;exitY=0;exitDx=0;exitDy=0;entryX=0.5;entryY=0;entryDx=0;entryDy=0;labelBackgroundColor=none;strokeColor=#0B4D6A;fontColor=default;" edge="1" parent="1" source="dg2vwGeBgCSmrkinromB-4" target="dg2vwGeBgCSmrkinromB-25">
          <mxGeometry relative="1" as="geometry" />
        </mxCell>
        <mxCell id="dg2vwGeBgCSmrkinromB-37" value="11. Success Flow" style="edgeLabel;html=1;align=center;verticalAlign=middle;resizable=0;points=[];labelBackgroundColor=default;fontColor=#000033;fontStyle=0;fontSize=12;" vertex="1" connectable="0" parent="dg2vwGeBgCSmrkinromB-36">
          <mxGeometry x="0.1118" relative="1" as="geometry">
            <mxPoint as="offset" />
          </mxGeometry>
        </mxCell>
        <mxCell id="dg2vwGeBgCSmrkinromB-4" value="Order Service" style="rounded=1;whiteSpace=wrap;html=1;labelBackgroundColor=none;fillColor=#09555B;strokeColor=#BAC8D3;fontColor=#EEEEEE;" vertex="1" parent="1">
          <mxGeometry x="370" y="200" width="120" height="60" as="geometry" />
        </mxCell>
        <mxCell id="dg2vwGeBgCSmrkinromB-8" style="edgeStyle=orthogonalEdgeStyle;rounded=0;orthogonalLoop=1;jettySize=auto;html=1;exitX=1;exitY=0.25;exitDx=0;exitDy=0;entryX=0;entryY=0.25;entryDx=0;entryDy=0;labelBackgroundColor=none;strokeColor=#0B4D6A;fontColor=default;" edge="1" parent="1" source="dg2vwGeBgCSmrkinromB-25" target="dg2vwGeBgCSmrkinromB-4">
          <mxGeometry relative="1" as="geometry">
            <mxPoint x="190" y="215" as="sourcePoint" />
          </mxGeometry>
        </mxCell>
        <mxCell id="dg2vwGeBgCSmrkinromB-9" value="1. Create Order" style="edgeLabel;html=1;align=center;verticalAlign=middle;resizable=0;points=[];labelBackgroundColor=default;fontColor=#000033;fontStyle=0;fontSize=12;" vertex="1" connectable="0" parent="dg2vwGeBgCSmrkinromB-8">
          <mxGeometry x="-0.0556" relative="1" as="geometry">
            <mxPoint as="offset" />
          </mxGeometry>
        </mxCell>
        <mxCell id="dg2vwGeBgCSmrkinromB-13" style="edgeStyle=orthogonalEdgeStyle;rounded=0;orthogonalLoop=1;jettySize=auto;html=1;exitX=0.25;exitY=0;exitDx=0;exitDy=0;entryX=0.25;entryY=1;entryDx=0;entryDy=0;labelBackgroundColor=none;strokeColor=#0B4D6A;fontColor=default;" edge="1" parent="1" source="dg2vwGeBgCSmrkinromB-12" target="dg2vwGeBgCSmrkinromB-4">
          <mxGeometry relative="1" as="geometry" />
        </mxCell>
        <mxCell id="dg2vwGeBgCSmrkinromB-15" value="4. OrderID" style="edgeLabel;html=1;align=center;verticalAlign=middle;resizable=0;points=[];labelBackgroundColor=default;fontColor=#000033;fontStyle=0;fontSize=12;" vertex="1" connectable="0" parent="dg2vwGeBgCSmrkinromB-13">
          <mxGeometry x="0.1167" y="1" relative="1" as="geometry">
            <mxPoint as="offset" />
          </mxGeometry>
        </mxCell>
        <mxCell id="dg2vwGeBgCSmrkinromB-19" style="edgeStyle=orthogonalEdgeStyle;rounded=0;orthogonalLoop=1;jettySize=auto;html=1;exitX=0;exitY=0.75;exitDx=0;exitDy=0;entryX=0.5;entryY=1;entryDx=0;entryDy=0;labelBackgroundColor=none;strokeColor=#0B4D6A;fontColor=default;" edge="1" parent="1" source="dg2vwGeBgCSmrkinromB-12" target="dg2vwGeBgCSmrkinromB-25">
          <mxGeometry relative="1" as="geometry">
            <mxPoint x="190" y="415" as="targetPoint" />
          </mxGeometry>
        </mxCell>
        <mxCell id="dg2vwGeBgCSmrkinromB-24" value="8. Payment Link" style="edgeLabel;html=1;align=center;verticalAlign=middle;resizable=0;points=[];labelBackgroundColor=default;fontColor=#000033;fontStyle=0;fontSize=12;" vertex="1" connectable="0" parent="dg2vwGeBgCSmrkinromB-19">
          <mxGeometry x="0.0111" y="-2" relative="1" as="geometry">
            <mxPoint x="100" as="offset" />
          </mxGeometry>
        </mxCell>
        <mxCell id="dg2vwGeBgCSmrkinromB-28" style="edgeStyle=orthogonalEdgeStyle;rounded=0;orthogonalLoop=1;jettySize=auto;html=1;exitX=0.75;exitY=1;exitDx=0;exitDy=0;entryX=0.75;entryY=0;entryDx=0;entryDy=0;labelBackgroundColor=none;strokeColor=#0B4D6A;fontColor=default;" edge="1" parent="1" source="dg2vwGeBgCSmrkinromB-12" target="dg2vwGeBgCSmrkinromB-26">
          <mxGeometry relative="1" as="geometry" />
        </mxCell>
        <mxCell id="dg2vwGeBgCSmrkinromB-29" value="6. OrderID,&lt;div style=&quot;font-size: 12px;&quot;&gt;amount,&lt;/div&gt;&lt;div style=&quot;font-size: 12px;&quot;&gt;Callback URL&lt;/div&gt;" style="edgeLabel;html=1;align=center;verticalAlign=middle;resizable=0;points=[];labelBackgroundColor=default;fontColor=#000033;fontStyle=0;fontSize=12;" vertex="1" connectable="0" parent="dg2vwGeBgCSmrkinromB-28">
          <mxGeometry x="-0.175" y="1" relative="1" as="geometry">
            <mxPoint as="offset" />
          </mxGeometry>
        </mxCell>
        <mxCell id="dg2vwGeBgCSmrkinromB-12" value="Payment&amp;nbsp;&lt;span style=&quot;background-color: initial;&quot;&gt;Service&lt;/span&gt;" style="rounded=1;whiteSpace=wrap;html=1;labelBackgroundColor=none;fillColor=#09555B;strokeColor=#BAC8D3;fontColor=#EEEEEE;" vertex="1" parent="1">
          <mxGeometry x="370" y="370" width="120" height="60" as="geometry" />
        </mxCell>
        <mxCell id="dg2vwGeBgCSmrkinromB-18" style="edgeStyle=orthogonalEdgeStyle;rounded=0;orthogonalLoop=1;jettySize=auto;html=1;exitX=0.75;exitY=1;exitDx=0;exitDy=0;entryX=0;entryY=0.25;entryDx=0;entryDy=0;labelBackgroundColor=none;strokeColor=#0B4D6A;fontColor=default;" edge="1" parent="1" source="dg2vwGeBgCSmrkinromB-25" target="dg2vwGeBgCSmrkinromB-12">
          <mxGeometry relative="1" as="geometry">
            <mxPoint x="190" y="385" as="sourcePoint" />
          </mxGeometry>
        </mxCell>
        <mxCell id="dg2vwGeBgCSmrkinromB-20" value="3. InitiatePayment(OrderID)" style="edgeLabel;html=1;align=center;verticalAlign=middle;resizable=0;points=[];labelBackgroundColor=default;fontColor=#000033;fontStyle=0;fontSize=12;" vertex="1" connectable="0" parent="dg2vwGeBgCSmrkinromB-18">
          <mxGeometry x="-0.0222" y="2" relative="1" as="geometry">
            <mxPoint x="71" as="offset" />
          </mxGeometry>
        </mxCell>
        <mxCell id="dg2vwGeBgCSmrkinromB-32" style="edgeStyle=orthogonalEdgeStyle;rounded=0;orthogonalLoop=1;jettySize=auto;html=1;exitX=0.25;exitY=1;exitDx=0;exitDy=0;entryX=0;entryY=0.5;entryDx=0;entryDy=0;labelBackgroundColor=none;strokeColor=#0B4D6A;fontColor=default;" edge="1" parent="1" source="dg2vwGeBgCSmrkinromB-25" target="dg2vwGeBgCSmrkinromB-31">
          <mxGeometry relative="1" as="geometry" />
        </mxCell>
        <mxCell id="dg2vwGeBgCSmrkinromB-33" value="9. Start Payment Using Link" style="edgeLabel;html=1;align=center;verticalAlign=middle;resizable=0;points=[];labelBackgroundColor=default;fontColor=#000033;fontStyle=0;fontSize=12;" vertex="1" connectable="0" parent="dg2vwGeBgCSmrkinromB-32">
          <mxGeometry x="0.4831" relative="1" as="geometry">
            <mxPoint as="offset" />
          </mxGeometry>
        </mxCell>
        <mxCell id="dg2vwGeBgCSmrkinromB-25" value="Client" style="rounded=1;whiteSpace=wrap;html=1;labelBackgroundColor=none;fillColor=#09555B;strokeColor=#BAC8D3;fontColor=#EEEEEE;" vertex="1" parent="1">
          <mxGeometry x="70" y="200" width="120" height="60" as="geometry" />
        </mxCell>
        <mxCell id="dg2vwGeBgCSmrkinromB-27" style="edgeStyle=orthogonalEdgeStyle;rounded=0;orthogonalLoop=1;jettySize=auto;html=1;exitX=0.25;exitY=0;exitDx=0;exitDy=0;entryX=0.25;entryY=1;entryDx=0;entryDy=0;labelBackgroundColor=none;strokeColor=#0B4D6A;fontColor=default;" edge="1" parent="1" source="dg2vwGeBgCSmrkinromB-26" target="dg2vwGeBgCSmrkinromB-12">
          <mxGeometry relative="1" as="geometry" />
        </mxCell>
        <mxCell id="dg2vwGeBgCSmrkinromB-30" value="7. Link" style="edgeLabel;html=1;align=center;verticalAlign=middle;resizable=0;points=[];labelBackgroundColor=default;fontColor=#000033;fontStyle=0;fontSize=12;" vertex="1" connectable="0" parent="dg2vwGeBgCSmrkinromB-27">
          <mxGeometry x="0.175" relative="1" as="geometry">
            <mxPoint as="offset" />
          </mxGeometry>
        </mxCell>
        <mxCell id="dg2vwGeBgCSmrkinromB-26" value="Stripe" style="rounded=1;whiteSpace=wrap;html=1;labelBackgroundColor=none;fillColor=#09555B;strokeColor=#BAC8D3;fontColor=#EEEEEE;" vertex="1" parent="1">
          <mxGeometry x="370" y="510" width="120" height="60" as="geometry" />
        </mxCell>
        <mxCell id="dg2vwGeBgCSmrkinromB-34" style="edgeStyle=orthogonalEdgeStyle;rounded=0;orthogonalLoop=1;jettySize=auto;html=1;exitX=1;exitY=0.25;exitDx=0;exitDy=0;entryX=1;entryY=0.75;entryDx=0;entryDy=0;labelBackgroundColor=none;strokeColor=#0B4D6A;fontColor=default;" edge="1" parent="1" source="dg2vwGeBgCSmrkinromB-31" target="dg2vwGeBgCSmrkinromB-4">
          <mxGeometry relative="1" as="geometry">
            <Array as="points">
              <mxPoint x="560" y="625" />
              <mxPoint x="560" y="245" />
            </Array>
          </mxGeometry>
        </mxCell>
        <mxCell id="dg2vwGeBgCSmrkinromB-35" value="10. Payment Success&lt;div style=&quot;font-size: 12px;&quot;&gt;update order status&amp;nbsp;&lt;/div&gt;&lt;div style=&quot;font-size: 12px;&quot;&gt;(OrderID)&lt;/div&gt;" style="edgeLabel;html=1;align=center;verticalAlign=middle;resizable=0;points=[];labelBackgroundColor=default;fontColor=#000033;fontStyle=0;fontSize=12;" vertex="1" connectable="0" parent="dg2vwGeBgCSmrkinromB-34">
          <mxGeometry x="0.0154" relative="1" as="geometry">
            <mxPoint as="offset" />
          </mxGeometry>
        </mxCell>
        <mxCell id="dg2vwGeBgCSmrkinromB-31" value="Stripe&amp;nbsp;&lt;div&gt;Payment Page&lt;/div&gt;" style="rounded=1;whiteSpace=wrap;html=1;labelBackgroundColor=none;fillColor=#09555B;strokeColor=#BAC8D3;fontColor=#EEEEEE;" vertex="1" parent="1">
          <mxGeometry x="370" y="610" width="120" height="60" as="geometry" />
        </mxCell>
      </root>
    </mxGraphModel>
  </diagram>
</mxfile>
